<?xml version="1.0" encoding="UTF-8"?>
<svg id="Layer_2" data-name="Layer 2" xmlns="http://www.w3.org/2000/svg" viewBox="0 0 425.94 408.63">
  <defs>
    <style>
      .cls-1 {
        opacity: .18;
      }

      .cls-2 {
        fill: #fff;
      }

      .cls-3 {
        fill: #0020ad;
        opacity: .11;
      }

      .cls-4 {
        fill: #b4021a;
      }

      .cls-5 {
        fill: #5c0010;
      }

      .cls-5, .cls-6 {
        stroke: #5c0010;
      }

      .cls-5, .cls-6, .cls-7 {
        stroke-miterlimit: 10;
      }

      .cls-6, .cls-7 {
        fill: none;
        stroke-linecap: round;
        stroke-width: .5px;
      }

      .cls-7 {
        stroke: #b4021a;
      }
    </style>
  </defs>
  <g id="Layer_1-2" data-name="Layer 1">
    <g>
      <g>
        <g>
          <path class="cls-2" d="M422.95,204.32c0,25.91-4.82,50.69-13.62,73.49-.02,.05-.05,.11-.07,.18-.35,.86-.69,1.73-1.04,2.62-.04,.11-.07,.2-.13,.31-2.66,6.63-5.68,13.07-9.01,19.32-.05,.09-.11,.2-.16,.31-34.41,64.33-102.24,108.08-180.27,108.08-112.83,0-204.31-91.47-204.31-204.31C14.33,108.28,80.61,27.71,169.92,5.86l.22-.05c15.55-3.81,31.79-5.81,48.5-5.81,112.83,0,204.31,91.47,204.31,204.32Z"/>
          <g>
            <path class="cls-4" d="M305.49,325.17c19.13,42.42-83.07,95.78-112.74,46.18-29.67-49.6,88.98-98.89,112.74-46.18Z"/>
            <path class="cls-4" d="M377.6,236.5c23.81,12.67,1.69,62.68-25.09,56.77-26.78-5.91,1.29-69.44,25.09-56.77Z"/>
            <path class="cls-4" d="M186.13,29.17c13.47,18.1-31.92,50.38-50.4,33.58-18.48-16.8,34.16-55.4,50.4-33.58Z"/>
            <path class="cls-4" d="M73.5,280.98c19.56-12.84,48.8,28.95,30.32,45.08-18.48,16.13-52.23-30.69-30.32-45.08Z"/>
            <path class="cls-4" d="M116.7,77.87c11.2,8.96-4.43,30.8-15.65,23.52-11.23-7.28,4.45-32.48,15.65-23.52Z"/>
          </g>
        </g>
        <path class="cls-3" d="M398.91,300.55c-34.41,64.33-102.24,108.08-180.27,108.08-112.83,0-204.31-91.47-204.31-204.31C14.33,108.28,80.61,27.71,169.92,5.86,163.2,7.65,6.27,51.07,37.99,228.76c5.37,30.1,16.17,55.95,30.83,77.62,4.48,6.59,9.29,12.8,14.42,18.61,35.49,40.18,85.99,61.83,137.18,65.29,6.79,.46,13.6,.6,20.37,.42,64.04-1.73,126.14-31.97,158.13-90.15Z"/>
      </g>
      <g>
        <g class="cls-1">
          <g>
            <path class="cls-5" d="M247.85,135.78s3.11-2.67,9.06-1.42c5.95,1.24,7.73,3.2,8.35,4.35,.62,1.16,6.31,2.75,8.09,3.02,1.78,.27,2.22,1.07,1.87,2.75-.36,1.69-5.15,1.69-7.29,2.04-2.13,.36-4.89,1.07-3.64,3.02,1.24,1.96,5.6,5.6,6.04,12.17,.44,6.58-1.51,13.06-7.29,17.51,0,0,10.84-2.04,12.8,.98,1.96,3.02-5.33,13.29-7.2,15.4-1.87,2.11-2.87,3.53-6.63,4.69-3.76,1.16-11.5,.62-11.94,0-.44-.62,4.35-3.82,5.24-3.64,.89,.18,2.49,.98,3.55,1.6,1.07,.62,4.35-.27,6.4-3.29,2.04-3.02,5.33-9.6,2.13-10.4-3.2-.8-9.33,4-14.75,3.55-5.42-.44-3.2-5.69-3.2-5.69,0,0-7.46,2.84-13.95,3.29-6.49,.44-12.26-.36-12.26-.36,0,0-1.33,3.29-7.2,6.13-5.87,2.84-7.64,2.72-8.62,4.11s-2.22,6.46-5.6,10.37c-3.38,3.91-4.18,4.26-5.69,4.53-1.51,.27-4.35-.17-4.44-.97s2.67-3.91,3.64-3.82,2.04,.98,3.91-.18c1.87-1.16,3.38-5.87,2.75-7.82-.62-1.96-2.13-3.38-.36-6.31,1.78-2.93,4.71-4.53,4.98-7.2,.27-2.67-5.6-7.11,.8-16.44,0,0-6.4,0-3.2-8.62,0,0,5.87,.71,5.42,6.31,0,0,2.13-5.78,10.13-5.6s19.64,5.24,26.22,3.38c6.58-1.87,6.4-9.95,3.38-12.8-3.02-2.84-3.73-10.13-3.38-12,0,0-5.6,3.2-8.8-2.75,0,0,4.8-5.51,10.66,.09Z"/>
            <path class="cls-5" d="M262.69,175.73c0,.27,10.56,7.38,15.84,10.56,5.28,3.19,10.65,5.01,11.75,5.19,1.09,.18,5.83,1.06,7.19,4.13,0,0-6.19,.88-7.01,.61-.82-.27-2.37-3.1-6.65-3.82-4.28-.73-12.23-4.85-15.08-6.02-2.85-1.17-10.68-3.9-12.32-5.54-1.64-1.64,6.28-5.1,6.28-5.1Z"/>
            <path class="cls-5" d="M208.7,182.65s-2.28,2.82-6.65,4.55c-4.37,1.73-7.74,1-8.47,3.46-.73,2.46,1.91,4.55,0,7.37-1.91,2.82-3.96,3.29-4.71,3.28s-1.49-.11-3.3,1.91c-1.82,2.02-2,3.11,0,3.6,2,.49,8.01-4.42,9.56-6.61s3-4.83,4.55-5.47c1.55-.64,9.01-1.18,14.66-6.19,5.65-5.01-5.65-5.92-5.65-5.92Z"/>
            <g>
              <g>
                <path class="cls-5" d="M250.8,137.24c-.06,0-.12,0-.17-.03-.22-.07-.28-.14-.98-.99-1.63-1.98-5.94-7.24-10.53-9.63-1.83-.96-4.49-1.37-7.57-1.84-6.5-1-14.6-2.25-21.28-9.34-.22-.24-.21-.61,.02-.84,.24-.22,.61-.21,.84,.02,6.4,6.79,14.27,8.01,20.6,8.98,3.18,.49,5.93,.92,7.94,1.96,4.8,2.5,9.23,7.9,10.89,9.93,.24,.3,.49,.6,.58,.69,.2,.14,.3,.41,.22,.65-.08,.25-.31,.42-.56,.42Z"/>
                <path class="cls-5" d="M221.47,127.59c-1.58,0-2.62-.21-2.72-.24-.32-.07-.52-.38-.45-.7,.07-.32,.38-.52,.7-.45,.06,.01,6.12,1.25,11.55-2.63,.27-.19,.64-.13,.82,.14,.19,.27,.13,.63-.14,.82-3.57,2.54-7.31,3.06-9.76,3.06Z"/>
                <path class="cls-5" d="M224.12,123.3c-.17,0-.33-.07-.45-.2-4.36-5.05-3.23-11.31-3.18-11.57,.06-.32,.37-.53,.69-.47,.32,.06,.53,.37,.47,.69-.01,.06-1.07,5.97,2.91,10.58,.21,.25,.19,.62-.06,.83-.11,.1-.25,.14-.39,.14Z"/>
                <path class="cls-5" d="M234.66,125.25c-.15,0-.29-.05-.4-.16-4.76-4.48-4.02-9.82-3.99-10.04,.05-.32,.35-.54,.67-.5,.32,.05,.54,.35,.5,.67,0,.05-.67,4.97,3.63,9.01,.24,.22,.25,.6,.03,.84-.12,.12-.27,.19-.43,.19Z"/>
                <path class="cls-5" d="M241.81,128.18c-.22,0-.43-.12-.53-.33-1.6-3.22-.05-7.61,.02-7.8,.11-.31,.45-.47,.76-.35,.31,.11,.47,.45,.36,.76-.02,.04-1.45,4.1-.07,6.87,.15,.29,.03,.65-.27,.79-.08,.04-.17,.06-.26,.06Z"/>
                <path class="cls-5" d="M233.51,128.6c-.16,0-.26,0-.28,0-.33-.02-.57-.3-.55-.62,.02-.33,.28-.57,.62-.56,.03,0,3.39,.16,4.74-2.04,.17-.28,.53-.37,.81-.19,.28,.17,.36,.53,.19,.81-1.48,2.41-4.58,2.61-5.54,2.61Z"/>
              </g>
              <g>
                <path class="cls-5" d="M252.56,136.78c-.25,0-.48-.16-.56-.41-.06-.19-.04-.28,.14-1.16,.43-2.06,1.59-7.53,.93-11.9-.26-1.75-1.23-3.84-2.34-6.26-2.36-5.12-5.29-11.48-4.12-19.49,.05-.32,.34-.55,.67-.5,.32,.05,.55,.35,.5,.67-1.12,7.66,1.73,13.85,4.02,18.83,1.15,2.5,2.15,4.67,2.44,6.58,.69,4.58-.49,10.2-.94,12.32-.08,.36-.13,.61-.15,.72,0,.26-.16,.5-.41,.58-.06,.02-.12,.03-.18,.03Z"/>
                <path class="cls-5" d="M250.99,116.81c-.08,0-.16-.02-.24-.05-5.18-2.32-7.29-7.48-7.37-7.7-.12-.3,.03-.65,.33-.77,.3-.12,.65,.03,.77,.33,.02,.05,2.03,4.93,6.76,7.06,.3,.13,.43,.48,.3,.78-.1,.22-.31,.35-.54,.35Z"/>
                <path class="cls-5" d="M248.71,111.35s-.07,0-.11-.01c-.32-.06-.53-.37-.47-.69,1.03-5.48,5.33-7.54,5.51-7.62,.29-.14,.64,0,.78,.28,.14,.29,.01,.65-.28,.79-.04,.02-3.94,1.91-4.85,6.77-.05,.28-.3,.48-.58,.48Z"/>
                <path class="cls-5" d="M252.34,119.79s-.04,0-.05,0c-.33-.03-.56-.32-.54-.64,.5-5.5,4.08-7.43,4.23-7.51,.29-.15,.65-.04,.8,.25,.15,.29,.04,.64-.25,.8-.14,.07-3.16,1.75-3.6,6.57-.03,.31-.29,.54-.59,.54Z"/>
                <path class="cls-5" d="M253.85,126.24c-.08,0-.16-.02-.24-.05-.3-.13-.43-.48-.29-.78,1.22-2.68,4.61-3.58,4.76-3.62,.32-.08,.64,.11,.72,.43,.08,.32-.11,.64-.42,.72-.03,0-3,.8-3.98,2.96-.1,.22-.31,.35-.54,.35Z"/>
                <path class="cls-5" d="M253.46,123.04c-2.51,0-4.18-2.91-4.25-3.03-.16-.28-.06-.64,.23-.8,.28-.16,.64-.06,.8,.22,.01,.02,1.4,2.43,3.22,2.43h.04c.32,0,.59,.26,.59,.58,0,.33-.26,.59-.58,.6-.02,0-.03,0-.05,0Z"/>
              </g>
            </g>
          </g>
          <g>
            <path class="cls-5" d="M375.92,133.31s3.38-2.31,9.17-.42c5.78,1.89,7.33,4.03,7.82,5.25,.49,1.22,5.97,3.43,7.71,3.89,1.74,.46,2.09,1.3,1.55,2.94-.54,1.64-5.31,1.11-7.47,1.23-2.16,.12-4.98,.52-3.95,2.6,1.02,2.08,4.95,6.18,4.67,12.77-.28,6.59-2.94,12.82-9.17,16.6,0,0,11-.84,12.61,2.38,1.61,3.22-6.76,12.62-8.85,14.51-2.09,1.89-3.24,3.19-7.11,3.93-3.87,.73-11.49-.65-11.87-1.31s4.75-3.32,5.61-3.04c.86,.27,2.37,1.25,3.36,1.98,.99,.74,4.36,.21,6.72-2.56s6.36-8.95,3.26-10.1c-3.09-1.15-9.71,2.95-15.05,1.91-5.34-1.04-2.55-6.01-2.55-6.01,0,0-7.73,2.01-14.23,1.73-6.5-.27-12.15-1.7-12.15-1.7,0,0-1.69,3.12-7.83,5.3-6.14,2.18-7.89,1.86-9.02,3.14-1.13,1.28-2.92,6.18-6.71,9.69-3.79,3.51-4.62,3.77-6.15,3.87-1.53,.1-4.31-.65-4.31-1.46s3.08-3.59,4.04-3.4c.96,.2,1.92,1.2,3.91,.25,1.98-.94,4-5.46,3.6-7.47-.4-2.01-1.75-3.59,.34-6.31,2.09-2.72,5.18-3.99,5.74-6.61,.56-2.62-4.78-7.68,2.6-16.25,0,0-6.36-.7-2.23-8.92,0,0,5.75,1.35,4.69,6.87,0,0,2.76-5.51,10.69-4.45,7.93,1.06,18.94,7.37,25.68,6.24,6.74-1.13,7.45-9.19,4.76-12.35s-2.59-10.48-2.04-12.3c0,0-5.92,2.56-8.44-3.71,0,0,5.38-4.95,10.59,1.26Z"/>
            <path class="cls-5" d="M386.27,174.66c-.03,.27,9.69,8.49,14.58,12.24,4.9,3.75,10.04,6.15,11.1,6.45,1.07,.3,5.68,1.7,6.7,4.89,0,0-6.25,.19-7.04-.17-.78-.36-2.01-3.34-6.19-4.53-4.17-1.19-11.62-6.16-14.33-7.64s-10.19-5.06-11.64-6.86,6.81-4.38,6.81-4.38Z"/>
            <path class="cls-5" d="M331.85,175.59s-2.57,2.55-7.11,3.79c-4.53,1.24-7.8,.14-8.8,2.51-.99,2.36,1.4,4.74-.81,7.33-2.21,2.6-4.29,2.83-5.04,2.74-.75-.09-1.46-.27-3.49,1.53-2.03,1.8-2.33,2.87-.4,3.58,1.94,.71,8.45-3.51,10.23-5.52,1.78-2,3.52-4.47,5.13-4.93s9.09-.18,15.25-4.54c6.16-4.36-4.96-6.5-4.96-6.5Z"/>
            <g>
              <g>
                <path class="cls-5" d="M378.69,135.09c-.06,0-.11-.02-.17-.05-.21-.09-.26-.17-.86-1.09-1.4-2.15-5.11-7.85-9.4-10.73-1.72-1.15-4.32-1.85-7.33-2.67-6.35-1.71-14.26-3.84-20.12-11.63-.2-.26-.14-.63,.12-.83,.26-.2,.63-.14,.83,.12,5.62,7.46,13.31,9.53,19.48,11.2,3.11,.84,5.8,1.56,7.68,2.83,4.49,3.02,8.3,8.87,9.74,11.07,.21,.32,.42,.65,.5,.75,.18,.17,.25,.44,.15,.67-.11,.24-.36,.38-.61,.35Z"/>
                <path class="cls-5" d="M350.6,122.27c-1.57-.17-2.58-.5-2.68-.54-.31-.1-.48-.44-.37-.75,.1-.31,.44-.48,.75-.37,.06,.02,5.94,1.91,11.77-1.34,.29-.16,.65-.06,.8,.23,.16,.29,.06,.64-.23,.8-3.82,2.14-7.6,2.24-10.04,1.97Z"/>
                <path class="cls-5" d="M353.71,118.3c-.16-.02-.32-.11-.42-.25-3.77-5.5-1.96-11.59-1.88-11.85,.1-.31,.43-.48,.74-.39,.31,.1,.49,.43,.39,.74-.02,.06-1.72,5.82,1.73,10.83,.18,.27,.12,.64-.15,.82-.12,.08-.26,.11-.4,.1Z"/>
                <path class="cls-5" d="M363.97,121.4c-.14-.02-.28-.08-.38-.2-4.24-4.98-2.91-10.2-2.86-10.42,.08-.31,.4-.5,.72-.42,.32,.08,.5,.41,.42,.72-.01,.05-1.21,4.86,2.61,9.35,.21,.25,.18,.62-.07,.83-.13,.11-.29,.15-.45,.14Z"/>
                <path class="cls-5" d="M370.76,125.09c-.22-.02-.41-.17-.49-.38-1.24-3.38,.79-7.57,.88-7.75,.14-.29,.5-.41,.79-.27,.29,.14,.41,.5,.27,.79-.02,.04-1.89,3.92-.83,6.82,.11,.31-.04,.65-.35,.76-.09,.03-.18,.04-.27,.03Z"/>
                <path class="cls-5" d="M362.46,124.6c-.16-.02-.26-.03-.28-.04-.32-.06-.54-.36-.48-.68,.05-.32,.34-.53,.68-.48,.03,0,3.35,.54,4.94-1.5,.2-.26,.57-.3,.83-.1,.26,.2,.3,.57,.1,.83-1.74,2.23-4.84,2.09-5.79,1.98Z"/>
              </g>
              <g>
                <path class="cls-5" d="M380.49,134.83c-.25-.03-.46-.21-.51-.47-.04-.2,0-.29,.27-1.14,.66-2,2.41-7.31,2.23-11.72-.07-1.77-.8-3.95-1.64-6.48-1.78-5.34-3.99-12-1.95-19.83,.08-.32,.4-.5,.72-.42,.32,.08,.5,.41,.42,.72-1.96,7.49,.2,13.96,1.93,19.15,.87,2.62,1.62,4.88,1.7,6.81,.19,4.63-1.61,10.09-2.29,12.14-.11,.35-.2,.59-.23,.7-.02,.26-.21,.48-.47,.53-.06,.01-.12,.01-.18,0Z"/>
                <path class="cls-5" d="M381.13,114.8c-.08,0-.16-.03-.23-.08-4.89-2.88-6.42-8.23-6.48-8.46-.09-.31,.1-.64,.41-.73,.31-.09,.64,.1,.73,.41,.01,.05,1.48,5.13,5.94,7.76,.28,.17,.38,.53,.21,.81-.12,.21-.35,.31-.57,.29Z"/>
                <path class="cls-5" d="M379.47,109.12s-.07-.01-.11-.02c-.31-.1-.49-.43-.39-.74,1.63-5.33,6.13-6.91,6.32-6.97,.31-.1,.64,.06,.75,.37,.11,.31-.06,.64-.37,.75-.04,.01-4.12,1.47-5.57,6.2-.08,.28-.35,.45-.63,.42Z"/>
                <path class="cls-5" d="M382.15,117.92s-.04,0-.05,0c-.32-.07-.53-.38-.46-.7,1.1-5.42,4.87-6.94,5.03-7,.31-.12,.65,.03,.76,.34,.12,.3-.03,.65-.33,.76-.14,.06-3.34,1.39-4.31,6.14-.06,.3-.34,.5-.64,.47Z"/>
                <path class="cls-5" d="M382.94,124.49c-.08,0-.16-.03-.24-.08-.28-.17-.37-.53-.21-.81,1.5-2.53,4.98-3.05,5.13-3.07,.32-.05,.62,.18,.67,.5,.05,.32-.18,.62-.5,.67-.03,0-3.07,.46-4.28,2.51-.12,.21-.35,.31-.57,.29Z"/>
                <path class="cls-5" d="M382.9,121.26c-2.5-.28-3.83-3.35-3.89-3.48-.13-.3,.01-.65,.31-.77,.3-.13,.65,.01,.78,.31,.01,.03,1.12,2.57,2.93,2.77,.01,0,.03,0,.04,0,.32,.04,.55,.32,.52,.64-.03,.33-.32,.56-.64,.53-.02,0-.03,0-.05,0Z"/>
              </g>
            </g>
          </g>
          <g>
            <path class="cls-5" d="M117.23,165.55c-2.62,.66-3.98,1.63-4.61,2.22-.2-.22-.4-.43-.61-.64-.36-.34-.87-.45-1.35-.31-.57,.16-1.36,.5-2.13,1.19-.53,.47-.6,1.25-.21,1.83-5.81,3.95-9.41,4.67-9.41,4.67-2.24-5.98-6.99-10.72-6.99-10.72,1.36-3.74,.51-5.36,.51-5.36,0,0,3.38-2.19,1.87-3.24-1.07-.75-2.62,1.12-2.62,1.12-1.25-3.74-4.11-7.1-4.11-7.1,2.5-2.12,2.12-4.86,.63-6.35s-3.74-.5-3.74-.5c-1.25-1.25-5.36-7.35-13.71-8.72-8.35-1.37-17.07,6.35-22.93,6.6-2.87,.12-5.55,.12-7.55,.1-.07-1.44-1.24-2.58-2.7-2.58s-2.71,1.21-2.71,2.71,1.21,2.71,2.71,2.71c1.22,0,2.24-.81,2.58-1.91,1.18,.5,2.66,1.24,4.43,2.35,4.98,3.11,10.22,3.74,15.45,1.87,5.23-1.87,3.99,5.11,3.99,5.11-1.99,.87-1.87,4.11,0,5.61s3.24,.75,3.24,.75c0,0-2.74,2.99-2.99,7.35-.25,4.36,1.74,6.73,2.99,8.72s-1.25,8.47,0,11.71c.57,1.47,1.75,2.48,2.92,3.14-4.51,8.46-2.53,19.79-2.53,19.79,28.91-2.24,50.93-14.14,50.93-14.14-2.01-12.89-12.94-4.3-12.94-4.3-.5-1.74-4.49-7.35-4.49-7.35,6.04-1.88,9.71-4.86,10.97-6.01,.37,.52,1.05,.75,1.66,.49,.61-.26,1.35-.69,2.05-1.35,.42-.41,.54-1.04,.31-1.58-.06-.13-.13-.29-.2-.44l1.73-.95s3.8,.87,5.17-1.99c1.37-2.87-1.62-5.48-5.61-4.49Z"/>
            <path class="cls-5" d="M15.47,255.34c-8.37,0-12.91-5.7-14.37-11.06-1.94-7.13,.96-14.56,7.05-18.08,7.06-4.07,13.51-2.11,17.18,1.09,3.88,3.38,5.39,8.37,3.76,12.41-1.98,4.91-5.96,6.66-9.04,6.66-.02,0-.04,0-.06,0-3.1-.02-5.74-1.66-6.71-4.17-.72-1.86-.72-3.49,0-4.85,.97-1.83,2.85-2.31,3.06-2.36,.88-.2,1.75,.34,1.96,1.22,.2,.87-.33,1.74-1.2,1.95-.05,.01-.68,.2-.95,.73-.3,.6-.07,1.48,.18,2.12,.48,1.23,1.96,2.07,3.69,2.08,.01,0,.03,0,.04,0,2.59,0,4.84-1.72,6.01-4.62,1.1-2.72-.09-6.31-2.88-8.73-3.66-3.18-8.68-3.46-13.41-.73-5.65,3.25-6.85,9.57-5.53,14.39,1.14,4.19,4.69,8.65,11.23,8.65,.04,0,.09,0,.13,0,8.54-.08,19.35-2.66,34.31-6.24,10.08-2.41,21.51-5.14,35.23-7.82,12.24-2.39,25.98-4.5,39.27-6.53,21.61-3.31,43.95-6.73,46.8-9.85,2.01-2.21,1.63-4.35,.61-5.63-.98-1.22-2.91-2.03-4.83-.91-.72,.42-1.57,1.12-1.51,2.11,.04,.78,.62,1.45,1.14,1.68,.48,.21,.74,0,.85-.08,.7-.57,1.73-.46,2.29,.24,.57,.7,.46,1.73-.24,2.29-1.2,.97-2.78,1.17-4.22,.52-1.73-.77-2.97-2.57-3.07-4.49-.11-2.02,1.04-3.88,3.14-5.1,3.07-1.78,6.77-1.08,9.01,1.69,1.93,2.39,2.45,6.37-.73,9.87-3.45,3.79-20.76,6.6-48.71,10.88-13.26,2.03-26.97,4.13-39.14,6.51-13.65,2.67-25.04,5.39-35.1,7.79-15.17,3.62-26.13,6.24-35.04,6.32-.06,0-.12,0-.17,0Z"/>
            <g>
              <path class="cls-5" d="M61.87,246.33c-.46,0-.92-.2-1.24-.58-.58-.68-.5-1.71,.18-2.29,.23-.2,5.23-4.68,3.62-13.69-.16-.89,.43-1.73,1.32-1.89,.89-.16,1.73,.43,1.89,1.32,1.95,10.94-4.44,16.52-4.72,16.75-.31,.26-.68,.39-1.05,.39Z"/>
              <path class="cls-5" d="M75.81,243.23c-.25,0-.5-.06-.73-.17-.8-.4-1.13-1.38-.73-2.18,.05-.1,2.35-5.05-.09-12.71-.27-.86,.2-1.77,1.06-2.05,.86-.27,1.77,.2,2.05,1.06,2.88,9.04,.03,14.91-.1,15.15-.29,.57-.86,.9-1.46,.9Z"/>
              <path class="cls-5" d="M116.95,235.92c-.36,0-.73-.12-1.03-.37-5.85-4.79-7.07-13.63-7.12-14.01-.12-.89,.51-1.71,1.4-1.83,.89-.12,1.71,.51,1.83,1.4,.01,.08,1.11,7.95,5.95,11.91,.7,.57,.8,1.6,.23,2.29-.32,.39-.79,.6-1.26,.6Z"/>
              <path class="cls-5" d="M133.59,233.36c-.06,0-.13,0-.2-.01-10.86-1.3-15.28-13.49-15.46-14.01-.3-.85,.15-1.78,1-2.08,.85-.3,1.78,.15,2.08,1,.05,.14,3.95,10.8,12.77,11.86,.89,.11,1.53,.92,1.43,1.81-.1,.83-.8,1.44-1.62,1.44Z"/>
            </g>
            <path class="cls-5" d="M44.16,167.9s-5.17,2.79-6.12-2.37c-.57-3.12,3.46-6.06,8.02-4.35,3.26,1.22,4.62,4.89,4.35,7.47-.73,6.96-6.11,8.7-17.39,13.99-11.28,5.3-18.75,19.16-10.33,36.14,8.42,16.98,31.93,15.9,53.4,12.09,21.47-3.8,64.81-8.29,76.9-16.71,12.09-8.42-2.99-15.9,0-25.14,2.51-7.77,10.6-2.99,8.42,2.31-.88,2.15-5.31,1.22-5.03-1.49,0,0-1.9,3.94,2.31,5.43,4.21,1.49,11.96-3.13,7.2-12.09-4.76-8.97-21.2-13.32-39.27,2.99-18.07,16.3-63.32,25-74.73,17.53-11.41-7.47-1.9-17.8,2.45-22.28,4.35-4.48,10.05-19.29-2.45-25.27-12.5-5.98-23.91,.27-23.23,10.33,.6,8.83,14.19,11.56,15.5,1.42Z"/>
          </g>
          <path class="cls-6" d="M117.67,172.02s67.74-29.93,141.14-20.65c73.4,9.28,85.34-6.86,126.75,.69"/>
        </g>
        <g>
          <g>
            <path class="cls-4" d="M255.13,128.5s3.11-2.67,9.06-1.42c5.95,1.24,7.73,3.2,8.35,4.35,.62,1.16,6.31,2.75,8.09,3.02,1.78,.27,2.22,1.07,1.87,2.75-.36,1.69-5.15,1.69-7.29,2.04-2.13,.36-4.89,1.07-3.64,3.02s5.6,5.6,6.04,12.17c.44,6.58-1.51,13.06-7.29,17.51,0,0,10.84-2.04,12.8,.98,1.96,3.02-5.33,13.29-7.2,15.4-1.87,2.11-2.87,3.53-6.63,4.69-3.76,1.16-11.5,.62-11.94,0-.44-.62,4.35-3.82,5.24-3.64,.89,.18,2.49,.98,3.55,1.6,1.07,.62,4.35-.27,6.4-3.29,2.04-3.02,5.33-9.6,2.13-10.4-3.2-.8-9.33,4-14.75,3.55-5.42-.44-3.2-5.69-3.2-5.69,0,0-7.46,2.84-13.95,3.29-6.49,.44-12.26-.36-12.26-.36,0,0-1.33,3.29-7.2,6.13-5.87,2.84-7.64,2.72-8.62,4.11s-2.22,6.46-5.6,10.37c-3.38,3.91-4.18,4.26-5.69,4.53-1.51,.27-4.35-.17-4.44-.97s2.67-3.91,3.64-3.82,2.04,.98,3.91-.18c1.87-1.16,3.38-5.87,2.75-7.82-.62-1.96-2.13-3.38-.36-6.31,1.78-2.93,4.71-4.53,4.98-7.2,.27-2.67-5.6-7.11,.8-16.44,0,0-6.4,0-3.2-8.62,0,0,5.87,.71,5.42,6.31,0,0,2.13-5.78,10.13-5.6,8,.18,19.64,5.24,26.22,3.38,6.58-1.87,6.4-9.95,3.38-12.8-3.02-2.84-3.73-10.13-3.38-12,0,0-5.6,3.2-8.8-2.75,0,0,4.8-5.51,10.66,.09Z"/>
            <path class="cls-4" d="M269.97,168.45c0,.27,10.56,7.38,15.84,10.56,5.28,3.19,10.65,5.01,11.75,5.19,1.09,.18,5.83,1.06,7.19,4.13,0,0-6.19,.88-7.01,.61-.82-.27-2.37-3.1-6.65-3.82-4.28-.73-12.23-4.85-15.08-6.02-2.85-1.17-10.68-3.9-12.32-5.54-1.64-1.64,6.28-5.1,6.28-5.1Z"/>
            <path class="cls-4" d="M215.98,175.37s-2.28,2.82-6.65,4.55c-4.37,1.73-7.74,1-8.47,3.46-.73,2.46,1.91,4.55,0,7.37-1.91,2.82-3.96,3.29-4.71,3.28s-1.49-.11-3.3,1.91c-1.82,2.02-2,3.11,0,3.6,2,.49,8.01-4.42,9.56-6.61s3-4.83,4.55-5.47c1.55-.64,9.01-1.18,14.66-6.19,5.65-5.01-5.65-5.92-5.65-5.92Z"/>
            <g>
              <g>
                <path class="cls-4" d="M258.08,129.96c-.06,0-.12,0-.17-.03-.22-.07-.28-.14-.98-.99-1.63-1.98-5.94-7.24-10.53-9.63-1.83-.96-4.49-1.37-7.57-1.84-6.5-1-14.6-2.25-21.28-9.34-.22-.24-.21-.61,.02-.84,.24-.22,.61-.21,.84,.02,6.4,6.79,14.27,8.01,20.6,8.98,3.18,.49,5.93,.92,7.94,1.96,4.8,2.5,9.23,7.9,10.89,9.93,.24,.3,.49,.6,.58,.69,.2,.14,.3,.41,.22,.65-.08,.25-.31,.42-.56,.42Z"/>
                <path class="cls-4" d="M228.75,120.31c-1.58,0-2.62-.21-2.72-.24-.32-.07-.52-.38-.45-.7,.07-.32,.38-.52,.7-.45,.06,.01,6.12,1.25,11.55-2.63,.27-.19,.64-.13,.82,.14,.19,.27,.13,.63-.14,.82-3.57,2.54-7.31,3.06-9.76,3.06Z"/>
                <path class="cls-4" d="M231.4,116.02c-.17,0-.33-.07-.45-.2-4.36-5.05-3.23-11.31-3.18-11.57,.06-.32,.37-.53,.69-.47,.32,.06,.53,.37,.47,.69-.01,.06-1.07,5.97,2.91,10.58,.21,.25,.19,.62-.06,.83-.11,.1-.25,.14-.39,.14Z"/>
                <path class="cls-4" d="M241.95,117.97c-.15,0-.29-.05-.4-.16-4.76-4.48-4.02-9.82-3.99-10.04,.05-.32,.35-.54,.67-.5,.32,.05,.54,.35,.5,.67,0,.05-.67,4.97,3.63,9.01,.24,.22,.25,.6,.03,.84-.12,.12-.27,.19-.43,.19Z"/>
                <path class="cls-4" d="M249.09,120.89c-.22,0-.43-.12-.53-.33-1.6-3.22-.05-7.61,.02-7.8,.11-.31,.45-.47,.76-.35,.31,.11,.47,.45,.36,.76-.02,.04-1.45,4.1-.07,6.87,.15,.29,.03,.65-.27,.79-.08,.04-.17,.06-.26,.06Z"/>
                <path class="cls-4" d="M240.79,121.32c-.16,0-.26,0-.28,0-.33-.02-.57-.3-.55-.62,.02-.33,.28-.57,.62-.56,.03,0,3.39,.16,4.74-2.04,.17-.28,.53-.37,.81-.19,.28,.17,.36,.53,.19,.81-1.48,2.41-4.58,2.61-5.54,2.61Z"/>
              </g>
              <g>
                <path class="cls-4" d="M259.84,129.5c-.25,0-.48-.16-.56-.41-.06-.19-.04-.28,.14-1.16,.43-2.06,1.59-7.53,.93-11.9-.26-1.75-1.23-3.84-2.34-6.26-2.36-5.12-5.29-11.48-4.12-19.49,.05-.32,.34-.55,.67-.5,.32,.05,.55,.35,.5,.67-1.12,7.66,1.73,13.85,4.02,18.83,1.15,2.5,2.15,4.67,2.44,6.58,.69,4.58-.49,10.2-.94,12.32-.08,.36-.13,.61-.15,.72,0,.26-.16,.5-.41,.58-.06,.02-.12,.03-.18,.03Z"/>
                <path class="cls-4" d="M258.27,109.52c-.08,0-.16-.02-.24-.05-5.18-2.32-7.29-7.48-7.37-7.7-.12-.3,.03-.65,.33-.77,.3-.12,.65,.03,.77,.33,.02,.05,2.03,4.93,6.76,7.06,.3,.13,.43,.48,.3,.78-.1,.22-.31,.35-.54,.35Z"/>
                <path class="cls-4" d="M256,104.07s-.07,0-.11-.01c-.32-.06-.53-.37-.47-.69,1.03-5.48,5.33-7.54,5.51-7.62,.29-.14,.64,0,.78,.28,.14,.29,.01,.65-.28,.79-.04,.02-3.94,1.91-4.85,6.77-.05,.28-.3,.48-.58,.48Z"/>
                <path class="cls-4" d="M259.63,112.51s-.04,0-.05,0c-.33-.03-.56-.32-.54-.64,.5-5.5,4.08-7.43,4.23-7.51,.29-.15,.65-.04,.8,.25,.15,.29,.04,.64-.25,.8-.14,.07-3.16,1.75-3.6,6.57-.03,.31-.29,.54-.59,.54Z"/>
                <path class="cls-4" d="M261.14,118.96c-.08,0-.16-.02-.24-.05-.3-.13-.43-.48-.29-.78,1.22-2.68,4.61-3.58,4.76-3.62,.32-.08,.64,.11,.72,.43,.08,.32-.11,.64-.42,.72-.03,0-3,.8-3.98,2.96-.1,.22-.31,.35-.54,.35Z"/>
                <path class="cls-4" d="M260.74,115.75c-2.51,0-4.18-2.91-4.25-3.03-.16-.28-.06-.64,.23-.8,.28-.16,.64-.06,.8,.22,.01,.02,1.4,2.43,3.22,2.43h.04c.32,0,.59,.26,.59,.58,0,.33-.26,.59-.58,.6-.02,0-.03,0-.05,0Z"/>
              </g>
            </g>
          </g>
          <g>
            <path class="cls-4" d="M383.2,126.03s3.38-2.31,9.17-.42c5.78,1.89,7.33,4.03,7.82,5.25,.49,1.22,5.97,3.43,7.71,3.89,1.74,.46,2.09,1.3,1.55,2.94-.54,1.64-5.31,1.11-7.47,1.23-2.16,.12-4.98,.52-3.95,2.6,1.02,2.08,4.95,6.18,4.67,12.77-.28,6.59-2.94,12.82-9.17,16.6,0,0,11-.84,12.61,2.38,1.61,3.22-6.76,12.62-8.85,14.51-2.09,1.89-3.24,3.19-7.11,3.93-3.87,.73-11.49-.65-11.87-1.31s4.75-3.32,5.61-3.04c.86,.27,2.37,1.25,3.36,1.98,.99,.74,4.36,.21,6.72-2.56s6.36-8.95,3.26-10.1c-3.09-1.15-9.71,2.95-15.05,1.91-5.34-1.04-2.55-6.01-2.55-6.01,0,0-7.73,2.01-14.23,1.73-6.5-.27-12.15-1.7-12.15-1.7,0,0-1.69,3.12-7.83,5.3-6.14,2.18-7.89,1.86-9.02,3.14-1.13,1.28-2.92,6.18-6.71,9.69-3.79,3.51-4.62,3.77-6.15,3.87-1.53,.1-4.31-.65-4.31-1.46s3.08-3.59,4.04-3.4c.96,.2,1.92,1.2,3.91,.25,1.98-.94,4-5.46,3.6-7.47-.4-2.01-1.75-3.59,.34-6.31,2.09-2.72,5.18-3.99,5.74-6.61,.56-2.62-4.78-7.68,2.6-16.25,0,0-6.36-.7-2.23-8.92,0,0,5.75,1.35,4.69,6.87,0,0,2.76-5.51,10.69-4.45,7.93,1.06,18.94,7.37,25.68,6.24s7.45-9.19,4.76-12.35c-2.69-3.16-2.59-10.48-2.04-12.3,0,0-5.92,2.56-8.44-3.71,0,0,5.38-4.95,10.59,1.26Z"/>
            <path class="cls-4" d="M393.56,167.37c-.03,.27,9.69,8.49,14.58,12.24,4.9,3.75,10.04,6.15,11.1,6.45,1.07,.3,5.68,1.7,6.7,4.89,0,0-6.25,.19-7.04-.17-.78-.36-2.01-3.34-6.19-4.53-4.17-1.19-11.62-6.16-14.33-7.64s-10.19-5.06-11.64-6.86,6.81-4.38,6.81-4.38Z"/>
            <path class="cls-4" d="M339.13,168.31s-2.57,2.55-7.11,3.79c-4.53,1.24-7.8,.14-8.8,2.51-.99,2.36,1.4,4.74-.81,7.33-2.21,2.6-4.29,2.83-5.04,2.74-.75-.09-1.46-.27-3.49,1.53-2.03,1.8-2.33,2.87-.4,3.58,1.94,.71,8.45-3.51,10.23-5.52,1.78-2,3.52-4.47,5.13-4.93s9.09-.18,15.25-4.54c6.16-4.36-4.96-6.5-4.96-6.5Z"/>
            <g>
              <g>
                <path class="cls-4" d="M385.97,127.8c-.06,0-.11-.02-.17-.05-.21-.09-.26-.17-.86-1.09-1.4-2.15-5.11-7.85-9.4-10.73-1.72-1.15-4.32-1.85-7.33-2.67-6.35-1.71-14.26-3.84-20.12-11.63-.2-.26-.14-.63,.12-.83,.26-.2,.63-.14,.83,.12,5.62,7.46,13.31,9.53,19.48,11.2,3.11,.84,5.8,1.56,7.68,2.83,4.49,3.02,8.3,8.87,9.74,11.07,.21,.32,.42,.65,.5,.75,.18,.17,.25,.44,.15,.67-.11,.24-.36,.38-.61,.35Z"/>
                <path class="cls-4" d="M357.89,114.99c-1.57-.17-2.58-.5-2.68-.54-.31-.1-.48-.44-.37-.75,.1-.31,.44-.48,.75-.37,.06,.02,5.94,1.91,11.77-1.34,.29-.16,.65-.06,.8,.23,.16,.29,.06,.64-.23,.8-3.82,2.14-7.6,2.24-10.04,1.97Z"/>
                <path class="cls-4" d="M360.99,111.02c-.16-.02-.32-.11-.42-.25-3.77-5.5-1.96-11.59-1.88-11.85,.1-.31,.43-.48,.74-.39,.31,.1,.49,.43,.39,.74-.02,.06-1.72,5.82,1.73,10.83,.18,.27,.12,.64-.15,.82-.12,.08-.26,.11-.4,.1Z"/>
                <path class="cls-4" d="M371.26,114.11c-.14-.02-.28-.08-.38-.2-4.24-4.98-2.91-10.2-2.86-10.42,.08-.31,.4-.5,.72-.42,.32,.08,.5,.41,.42,.72-.01,.05-1.21,4.86,2.61,9.35,.21,.25,.18,.62-.07,.83-.13,.11-.29,.15-.45,.14Z"/>
                <path class="cls-4" d="M378.04,117.81c-.22-.02-.41-.17-.49-.38-1.24-3.38,.79-7.57,.88-7.75,.14-.29,.5-.41,.79-.27,.29,.14,.41,.5,.27,.79-.02,.04-1.89,3.92-.83,6.82,.11,.31-.04,.65-.35,.76-.09,.03-.18,.04-.27,.03Z"/>
                <path class="cls-4" d="M369.74,117.32c-.16-.02-.26-.03-.28-.04-.32-.06-.54-.36-.48-.68,.05-.32,.34-.53,.68-.48,.03,0,3.35,.54,4.94-1.5,.2-.26,.57-.3,.83-.1,.26,.2,.3,.57,.1,.83-1.74,2.23-4.84,2.09-5.79,1.98Z"/>
              </g>
              <g>
                <path class="cls-4" d="M387.77,127.55c-.25-.03-.46-.21-.51-.47-.04-.2,0-.29,.27-1.14,.66-2,2.41-7.31,2.23-11.72-.07-1.77-.8-3.95-1.64-6.48-1.78-5.34-3.99-12-1.95-19.83,.08-.32,.4-.5,.72-.42,.32,.08,.5,.41,.42,.72-1.96,7.49,.2,13.96,1.93,19.15,.87,2.62,1.62,4.88,1.7,6.81,.19,4.63-1.61,10.09-2.29,12.14-.11,.35-.2,.59-.23,.7-.02,.26-.21,.48-.47,.53-.06,.01-.12,.01-.18,0Z"/>
                <path class="cls-4" d="M388.41,107.52c-.08,0-.16-.03-.23-.08-4.89-2.88-6.42-8.23-6.48-8.46-.09-.31,.1-.64,.41-.73,.31-.09,.64,.1,.73,.41,.01,.05,1.48,5.13,5.94,7.76,.28,.17,.38,.53,.21,.81-.12,.21-.35,.31-.57,.29Z"/>
                <path class="cls-4" d="M386.75,101.84s-.07-.01-.11-.02c-.31-.1-.49-.43-.39-.74,1.63-5.33,6.13-6.91,6.32-6.97,.31-.1,.64,.06,.75,.37,.11,.31-.06,.64-.37,.75-.04,.01-4.12,1.47-5.57,6.2-.08,.28-.35,.45-.63,.42Z"/>
                <path class="cls-4" d="M389.43,110.63s-.04,0-.05,0c-.32-.07-.53-.38-.46-.7,1.1-5.42,4.87-6.94,5.03-7,.31-.12,.65,.03,.76,.34,.12,.3-.03,.65-.33,.76-.14,.06-3.34,1.39-4.31,6.14-.06,.3-.34,.5-.64,.47Z"/>
                <path class="cls-4" d="M390.22,117.21c-.08,0-.16-.03-.24-.08-.28-.17-.37-.53-.21-.81,1.5-2.53,4.98-3.05,5.13-3.07,.32-.05,.62,.18,.67,.5,.05,.32-.18,.62-.5,.67-.03,0-3.07,.46-4.28,2.51-.12,.21-.35,.31-.57,.29Z"/>
                <path class="cls-4" d="M390.18,113.98c-2.5-.28-3.83-3.35-3.89-3.48-.13-.3,.01-.65,.31-.77,.3-.13,.65,.01,.78,.31,.01,.03,1.12,2.57,2.93,2.77,.01,0,.03,0,.04,0,.32,.04,.55,.32,.52,.64-.03,.33-.32,.56-.64,.53-.02,0-.03,0-.05,0Z"/>
              </g>
            </g>
          </g>
          <g>
            <path class="cls-4" d="M124.52,158.26c-2.62,.66-3.98,1.63-4.61,2.22-.2-.22-.4-.43-.61-.64-.36-.34-.87-.45-1.35-.31-.57,.16-1.36,.5-2.13,1.19-.53,.47-.6,1.25-.21,1.83-5.81,3.95-9.41,4.67-9.41,4.67-2.24-5.98-6.99-10.72-6.99-10.72,1.36-3.74,.51-5.36,.51-5.36,0,0,3.38-2.19,1.87-3.24-1.07-.75-2.62,1.12-2.62,1.12-1.25-3.74-4.11-7.1-4.11-7.1,2.5-2.12,2.12-4.86,.63-6.35s-3.74-.5-3.74-.5c-1.25-1.25-5.36-7.35-13.71-8.72-8.35-1.37-17.07,6.35-22.93,6.6-2.87,.12-5.55,.12-7.55,.1-.07-1.44-1.24-2.58-2.7-2.58s-2.71,1.21-2.71,2.71,1.21,2.71,2.71,2.71c1.22,0,2.24-.81,2.58-1.91,1.18,.5,2.66,1.24,4.43,2.35,4.98,3.11,10.22,3.74,15.45,1.87,5.23-1.87,3.99,5.11,3.99,5.11-1.99,.87-1.87,4.11,0,5.61s3.24,.75,3.24,.75c0,0-2.74,2.99-2.99,7.35-.25,4.36,1.74,6.73,2.99,8.72s-1.25,8.47,0,11.71c.57,1.47,1.75,2.48,2.92,3.14-4.51,8.46-2.53,19.79-2.53,19.79,28.91-2.24,50.93-14.14,50.93-14.14-2.01-12.89-12.94-4.3-12.94-4.3-.5-1.74-4.49-7.35-4.49-7.35,6.04-1.88,9.71-4.86,10.97-6.01,.37,.52,1.05,.75,1.66,.49,.61-.26,1.35-.69,2.05-1.35,.42-.41,.54-1.04,.31-1.58-.06-.13-.13-.29-.2-.44l1.73-.95s3.8,.87,5.17-1.99c1.37-2.87-1.62-5.48-5.61-4.49Z"/>
            <path class="cls-4" d="M22.75,248.06c-8.37,0-12.91-5.7-14.37-11.06-1.94-7.13,.96-14.56,7.05-18.08,7.06-4.07,13.51-2.11,17.18,1.09,3.88,3.38,5.39,8.37,3.76,12.41-1.98,4.91-5.96,6.66-9.04,6.66-.02,0-.04,0-.06,0-3.1-.02-5.74-1.66-6.71-4.17-.72-1.86-.72-3.49,0-4.85,.97-1.83,2.85-2.31,3.06-2.36,.88-.2,1.75,.34,1.96,1.22,.2,.87-.33,1.74-1.2,1.95-.05,.01-.68,.2-.95,.73-.3,.6-.07,1.48,.18,2.12,.48,1.23,1.96,2.07,3.69,2.08,.01,0,.03,0,.04,0,2.59,0,4.84-1.72,6.01-4.62,1.1-2.72-.09-6.31-2.88-8.73-3.66-3.18-8.68-3.46-13.41-.73-5.65,3.25-6.85,9.57-5.53,14.39,1.14,4.19,4.69,8.65,11.23,8.65,.04,0,.09,0,.13,0,8.54-.08,19.35-2.66,34.31-6.24,10.08-2.41,21.51-5.14,35.23-7.82,12.24-2.39,25.98-4.5,39.27-6.53,21.61-3.31,43.95-6.73,46.8-9.85,2.01-2.21,1.63-4.35,.61-5.63-.98-1.22-2.91-2.03-4.83-.91-.72,.42-1.57,1.12-1.51,2.11,.04,.78,.62,1.45,1.14,1.68,.48,.21,.74,0,.85-.08,.7-.57,1.73-.46,2.29,.24,.57,.7,.46,1.73-.24,2.29-1.2,.97-2.78,1.17-4.22,.52-1.73-.77-2.97-2.57-3.07-4.49-.11-2.02,1.04-3.88,3.14-5.1,3.07-1.78,6.77-1.08,9.01,1.69,1.93,2.39,2.45,6.37-.73,9.87-3.45,3.79-20.76,6.6-48.71,10.88-13.26,2.03-26.97,4.13-39.14,6.51-13.65,2.67-25.04,5.39-35.1,7.79-15.17,3.62-26.13,6.24-35.04,6.32-.06,0-.12,0-.17,0Z"/>
            <g>
              <path class="cls-4" d="M69.15,239.05c-.46,0-.92-.2-1.24-.58-.58-.68-.5-1.71,.18-2.29,.23-.2,5.23-4.68,3.62-13.69-.16-.89,.43-1.73,1.32-1.89,.89-.16,1.73,.43,1.89,1.32,1.95,10.94-4.44,16.52-4.72,16.75-.31,.26-.68,.39-1.05,.39Z"/>
              <path class="cls-4" d="M83.09,235.94c-.25,0-.5-.06-.73-.17-.8-.4-1.13-1.38-.73-2.18,.05-.1,2.35-5.05-.09-12.71-.27-.86,.2-1.77,1.06-2.05,.86-.27,1.77,.2,2.05,1.06,2.88,9.04,.03,14.91-.1,15.15-.29,.57-.86,.9-1.46,.9Z"/>
              <path class="cls-4" d="M124.23,228.63c-.36,0-.73-.12-1.03-.37-5.85-4.79-7.07-13.63-7.12-14.01-.12-.89,.51-1.71,1.4-1.83,.89-.12,1.71,.51,1.83,1.4,.01,.08,1.11,7.95,5.95,11.91,.7,.57,.8,1.6,.23,2.29-.32,.39-.79,.6-1.26,.6Z"/>
              <path class="cls-4" d="M140.87,226.08c-.06,0-.13,0-.2-.01-10.86-1.3-15.28-13.49-15.46-14.01-.3-.85,.15-1.78,1-2.08,.85-.3,1.78,.15,2.08,1,.05,.14,3.95,10.8,12.77,11.86,.89,.11,1.53,.92,1.43,1.81-.1,.83-.8,1.44-1.62,1.44Z"/>
            </g>
            <path class="cls-4" d="M51.45,160.62s-5.17,2.79-6.12-2.37c-.57-3.12,3.46-6.06,8.02-4.35,3.26,1.22,4.62,4.89,4.35,7.47-.73,6.96-6.11,8.7-17.39,13.99-11.28,5.3-18.75,19.16-10.33,36.14,8.42,16.98,31.93,15.9,53.4,12.09,21.47-3.8,64.81-8.29,76.9-16.71,12.09-8.42-2.99-15.9,0-25.14,2.51-7.77,10.6-2.99,8.42,2.31-.88,2.15-5.31,1.22-5.03-1.49,0,0-1.9,3.94,2.31,5.43,4.21,1.49,11.96-3.13,7.2-12.09-4.76-8.97-21.2-13.32-39.27,2.99-18.07,16.3-63.32,25-74.73,17.53-11.41-7.47-1.9-17.8,2.45-22.28,4.35-4.48,10.05-19.29-2.45-25.27-12.5-5.98-23.91,.27-23.23,10.33,.6,8.83,14.19,11.56,15.5,1.42Z"/>
          </g>
          <path class="cls-7" d="M124.95,164.74s67.74-29.93,141.14-20.65c73.4,9.28,85.34-6.86,126.75,.69"/>
        </g>
      </g>
    </g>
  </g>
</svg>